<?xml version="1.0" standalone="no"?>
<!DOCTYPE svg PUBLIC "-//W3C//DTD SVG 20010904//EN"
 "http://www.w3.org/TR/2001/REC-SVG-20010904/DTD/svg10.dtd">
<svg version="1.0" xmlns="http://www.w3.org/2000/svg"
 width="350.000000pt" height="350.000000pt" viewBox="0 0 350.000000 350.000000"
 preserveAspectRatio="xMidYMid meet">

<g transform="translate(0.000000,350.000000) scale(0.100000,-0.100000)"
fill="#000000" stroke="none">
<path d="M1130 3089 c-116 -10 -230 -38 -314 -79 -35 -16 -71 -30 -80 -30 -8
0 -45 -28 -81 -61 -78 -74 -138 -185 -158 -294 -13 -68 -14 -70 -45 -73 -32
-3 -32 -3 -32 -61 l0 -58 135 -157 136 -156 44 0 44 0 222 -257 c122 -142 230
-259 240 -261 23 -4 382 -424 370 -432 -6 -3 40 -64 102 -136 62 -71 128 -148
147 -170 l35 -41 119 8 c166 11 176 14 176 50 0 16 10 59 22 96 18 56 33 79
84 130 34 35 70 63 81 63 10 0 47 9 81 20 35 11 90 20 122 20 68 0 66 -4 81
125 l12 92 -68 82 c-38 46 -78 87 -90 91 -13 5 -117 123 -231 264 l-209 255
-47 0 -47 1 -175 213 c-167 202 -174 212 -150 217 25 5 19 15 -146 214 -94
115 -167 211 -162 215 16 10 -80 121 -103 120 -11 -1 -63 -5 -115 -10z"/>
<path d="M1659 3043 c28 -31 47 -59 42 -63 -6 -3 75 -100 179 -215 176 -197
187 -210 163 -215 -24 -5 -14 -19 166 -217 l192 -213 44 0 c47 0 48 -1 163
-130 l31 -35 1 83 0 82 -45 0 -45 0 0 215 0 215 30 0 30 0 0 215 c0 184 2 215
15 215 12 0 15 13 15 60 l0 60 -516 0 -516 0 51 -57z"/>
<path d="M510 1783 c0 -156 2 -183 15 -183 13 0 15 -31 15 -215 0 -184 -2
-215 -15 -215 -13 0 -15 -26 -15 -175 l0 -175 497 0 497 0 -26 28 c-115 125
-277 322 -263 322 21 0 -346 424 -371 428 -10 2 -67 61 -127 130 -59 70 -129
152 -157 182 l-49 55 -1 -182z"/>
<path d="M0 568 c0 -366 3 -558 10 -558 13 0 13 1079 0 1100 -6 10 -10 -179
-10 -542z"/>
</g>
</svg>
